<mxfile host="app.diagrams.net" modified="2023-06-13T11:31:23.545Z" agent="Mozilla/5.0 (Windows NT 10.0; Win64; x64; rv:109.0) Gecko/20100101 Firefox/113.0" version="21.3.4" etag="NXsiFZbUs-8yxK6mDyX6" type="github">
  <diagram name="第 1 页" id="ur0vHYSreIUvb1fSXA6s">
    <mxGraphModel>
      <root>
        <mxCell id="0" />
        <mxCell id="1" parent="0" />
      </root>
    </mxGraphModel>
  </diagram>
</mxfile>
